<svg t="1588696633368" class="icon" viewBox="0 0 1024 1024" version="1.1" xmlns="http://www.w3.org/2000/svg" p-id="5844" width="200" height="200"><path d="M401.876 122.817c27.084-22.648 64.135-34.132 110.123-34.132h0.01c24.52 0 46.714 3.285 65.967 9.764 21.007 7.069 38.427 17.781 53.258 32.749 18.131 18.299 32.598 43.539 42.999 75.021 13.354 40.419 20.124 91.146 20.124 150.773 0 29.037-4.157 58.21-12.357 86.711-8.142 28.298-20.042 55.167-35.377 79.868-5.949 9.587-12.105 18.475-18.296 26.419-19.015 24.397-22.261 57.571-8.335 85.192 6.843 13.571 12.698 23.581 18.429 31.501a79.995 79.995 0 0 0 43.728 30.275l27.859 7.612c2.433 0.999 4.897 2.019 7.369 3.042-0.283-10.018 0.255-20.065 1.67-30.005 2.469-17.351 7.382-33.969 14.548-49.516-0.102-0.028-0.199-0.064-0.302-0.092l-30.059-8.213c-3.595-4.969-7.903-12.877-11.808-20.621 8.322-10.678 16.005-21.865 23.17-33.41 38.412-61.873 59.761-135.03 59.761-208.764 0-143.943-35.669-231.008-86.296-282.102C637.436 23.796 571.852 8.685 512.009 8.685h-0.01c-108.468 0-235.806 49.632-258.72 273.2-2.379 23.128-3.629 48.117-3.629 75.107 0 5.467 0.123 10.934 0.346 16.391 0.508 11.859 1.607 23.68 3.182 35.435 2.053 15.272 4.947 30.425 8.749 45.331 2.529 9.958 5.487 19.796 8.771 29.524 0.192 0.578 0.354 1.156 0.558 1.732 0.549 1.588 1.169 3.153 1.728 4.738 14.064 39.336 34.143 76.367 59.6 109.023-0.377 0.744-0.764 1.475-1.14 2.217-0.69 1.332-1.373 2.672-2.072 3.984-0.315 0.578-0.619 1.137-0.935 1.707a209.32 209.32 0 0 1-2.511 4.49 115.76 115.76 0 0 1-1.606 2.725c-0.162 0.283-0.336 0.572-0.508 0.855a88.014 88.014 0 0 1-2.631 4.014l0.031 0.01c-0.144 0.193-0.295 0.447-0.427 0.629L290.726 628a41.735 41.735 0 0 0-4.88 1.654c-29.203 11.971-60.502 25.436-90.784 38.443-19.348 8.309-38.512 16.553-56.927 24.328-8.353 3.525-17.438 6.674-27.051 10.006-39.143 13.557-87.838 30.436-106.577 84.732a41.692 41.692 0 0 0-2.275 13.574c0 11.84-0.448 30.008-0.937 50.098-0.771 32.326-1.646 68.949-1.138 94.313 0.448 22.662 18.942 40.799 41.603 40.799h516.185c-9.033-26.542-5.019-56.575 12.056-80H80.177c0.235-17.132 0.679-35.705 1.091-53.008l0.004-0.159 0.032-1.343c0.403-16.589 0.763-31.346 0.884-43.023 2.171-4.111 5.498-7.854 11.763-11.953 11.144-7.292 27.499-12.957 43.357-18.45 10.406-3.606 21.166-7.336 31.945-11.886 16.986-7.172 34.87-14.853 52.166-22.281l5.217-2.24 3.025-1.301c28.202-12.114 57.338-24.63 84.342-35.729l27.844-7.599a80.008 80.008 0 0 0 45.518-32.821c0.415-0.61 0.819-1.223 1.216-1.842a181.802 181.802 0 0 0 3.616-5.654c0.223-0.366 0.517-0.854 0.855-1.429a196.085 196.085 0 0 0 2.136-3.632 281.762 281.762 0 0 0 3.355-5.987c0.287-0.521 0.567-1.034 0.853-1.557l0.187-0.342c0.133-0.244 0.266-0.489 0.396-0.735a323.62 323.62 0 0 0 1.988-3.808l0.503-0.975 0.333-0.648 0.24-0.466c0.306-0.591 0.611-1.183 0.913-1.779 13.995-27.644 10.77-60.883-8.28-85.319-19.998-25.653-35.915-54.798-47.313-86.631a210.276 210.276 0 0 0-1.218-3.333l-0.142-0.379a100.541 100.541 0 0 0-0.508-1.549c-2.758-8.173-5.123-16.125-7.031-23.635l-0.02-0.08c-2.964-11.617-5.313-23.802-6.976-36.177-1.302-9.72-2.157-19.196-2.544-28.168a323.651 323.651 0 0 1-0.275-13.039c0-23.704 1.079-46.22 3.212-66.95 8.147-79.478 31.367-135.74 69.015-167.223zM986.395 612.073c-50.13-50.132-131.408-50.132-181.539 0-40.854 40.853-48.409 102.39-22.677 150.899L614.244 930.908c-14.722 14.722-14.722 38.593 0 53.315 14.723 14.722 38.593 14.722 53.315 0l9.824-9.824 39.059 39.059c1.834 1.835 4.236 2.407 5.365 1.278l30.284-30.285c1.129-1.129 0.557-3.531-1.277-5.365l-39.059-39.059 16.404-16.404 16.989 16.99c1.835 1.835 4.237 2.406 5.366 1.277l30.284-30.284c1.129-1.129 0.557-3.531-1.277-5.365l-16.99-16.99 72.963-72.962c48.51 25.732 110.047 18.177 150.899-22.677 50.133-50.131 50.133-131.409 0.002-181.539z m-46.871 134.668c-24.206 24.206-63.592 24.206-87.798 0s-24.206-63.592 0-87.798 63.592-24.206 87.798 0 24.206 63.592 0 87.798z" p-id="5845" fill="#dbdbdb"></path></svg>