<svg t="1588695275114" class="icon" viewBox="0 0 1024 1024" version="1.1" xmlns="http://www.w3.org/2000/svg" p-id="2594" width="200" height="200"><path d="M891.088898 782.217305c18.439978 0 34.389228-6.522554 47.727001-19.561521 13.398148-13.045107 20.038382-28.577872 20.038382-46.602388l0-155.798369c0-18.676361-6.698562-34.506908-20.038382-47.547923-13.337773-13.044084-29.287023-19.566638-47.727001-19.566638L729.715557 493.140467c-18.441001 0-34.565237 6.522554-48.202838 19.566638-13.690814 13.041014-20.512173 28.930913-20.512173 47.547923l0 155.74004c0 18.024515 6.821359 33.556257 20.512173 46.597271 13.69593 13.045107 29.761837 19.566638 48.202838 19.566638L891.088898 782.158976 891.088898 782.217305 891.088898 782.217305z" p-id="2595"></path><path d="M891.088898 432.493202c18.439978 0 34.389228-6.522554 47.727001-19.567661 13.398148-13.038968 20.038382-28.571732 20.038382-46.656623L958.854281 209.638601c0-18.025539-6.698562-33.55728-20.038382-46.601364-13.337773-13.039991-29.287023-19.562545-47.727001-19.562545L729.715557 143.474692c-18.441001 0-34.565237 6.522554-48.202838 19.562545-13.690814 13.044084-20.512173 28.576849-20.512173 46.601364l0 156.689668c0 18.025539 6.821359 33.55728 20.512173 46.6556 13.69593 13.045107 29.761837 19.567661 48.202838 19.567661L891.088898 432.55153 891.088898 432.493202 891.088898 432.493202z" p-id="2596"></path><path d="M472.829885 432.493202c18.436908 0 34.565237-6.522554 48.198745-19.567661 13.69593-13.038968 20.511149-28.571732 20.511149-46.656623L541.53978 209.638601c0-18.025539-6.815219-33.55728-20.511149-46.601364-13.69593-13.039991-29.761837-19.562545-48.198745-19.562545L311.395146 143.474692c-18.436908 0-34.386158 6.522554-47.723931 19.562545-13.397125 13.044084-20.037359 28.576849-20.037359 46.601364l0 156.689668c0 18.025539 6.698562 33.55728 20.037359 46.6556 13.337773 13.045107 29.287023 19.567661 47.723931 19.567661l161.434739 0L472.829885 432.493202 472.829885 432.493202z" p-id="2597"></path><path d="M472.829885 432.493202" p-id="2598"></path><path d="M540.595268 591.969333c0-13.69593-2.727111-26.558889-8.124028-38.712697-5.395894-12.095479-12.68695-22.647813-21.936615-31.658024-9.249665-9.014304-20.037359-16.188704-32.488948-21.461801-12.390191-5.279237-25.611308-7.942903-39.600927-7.942903l-272.178983 0c-13.994736 0-27.210735 2.664689-39.603996 7.942903-12.390191 5.273097-23.240307 12.447497-32.489972 21.461801-9.244548 9.010211-16.540721 19.561521-21.932522 31.716352-5.455245 12.094456-8.124028 25.016767-8.124028 38.653345l0 266.724761c0 13.69593 2.727111 26.741038 8.124028 39.188534 5.3918 12.452613 12.745279 23.180955 21.932522 32.191166 9.249665 9.014304 20.042475 16.187681 32.489972 21.461801 12.393261 5.278213 25.609261 7.946996 39.603996 7.946996l272.178983 0c13.989619 0 27.210735-2.668783 39.663348-7.946996 12.388145-5.27412 23.240307-12.447497 32.485879-21.461801 9.249665-9.011234 16.540721-19.738553 21.936615-32.191166 5.395894-12.447497 8.124028-25.492604 8.124028-39.188534l0-266.724761L540.595268 591.968309 540.595268 591.969333z" p-id="2599"></path><path d="M167.845753 491.560482c-82.887802 3.728928-105.467053 72.239278-103.730503 102.538351l0 183.692672 1.52268 0 102.218056-81.597413 102.162798 81.597413 1.557472 0L271.576255 491.560482l-54.959729 0-49.446156 0L167.845753 491.560482z" p-id="2600"></path><path d="M219.902362 650.179083 178.846294 621.612467 137.78818 650.179083 152.283312 602.308819 112.439862 572.093657 162.415067 571.086723 178.856527 523.847839 195.297988 571.086723 245.239424 572.105936 205.395974 602.320075 219.902362 650.179083 219.902362 650.179083Z" p-id="2601"></path><path d="M219.902362 650.179083" p-id="2602"></path></svg>