<svg t="1597308869268" class="icon" viewBox="0 0 1024 1024" version="1.1" xmlns="http://www.w3.org/2000/svg" p-id="1103" data-spm-anchor-id="a313x.7781069.0.i3" width="200" height="200"><path d="M972.992 0 50.944 0C22.848 0 0 23.232 0 51.648l0 708.096c0 28.48 22.848 51.52 50.944 51.52l241.024 0c-24.256-31.488-42.304-62.272-53.888-92.032L99.008 719.232l0-627.2 825.984 0 0 627.2-142.4 0-1.344 36.992c-0.896 17.984-4.096 36.48-9.152 54.912l200.832 0c28.032 0 51.008-22.912 51.008-51.52L1023.936 51.648C1024 23.232 1001.152 0 972.992 0zM46.528 436.8c-16.896 0-30.656-13.824-30.656-31.104s13.824-31.168 30.656-31.168c17.216 0 30.784 13.888 30.784 31.168S63.744 436.8 46.528 436.8z" p-id="1104" fill="#ffffff"></path><path d="M740.992 640.64c0.128-6.016 0-12.032-0.64-17.856L740.352 493.76c0-23.936-19.136-43.52-42.752-43.52s-43.008 19.584-43.008 43.52L654.592 503.68c-3.776-1.408-7.488-2.624-11.456-3.84L643.136 434.688c0-23.936-19.264-43.456-43.008-43.456-23.616 0-42.816 19.52-42.816 43.456l0 37.376c-3.904-1.344-7.68-2.688-11.52-4.032L545.792 396.48c0-24-19.2-43.392-42.88-43.392-23.68 0-42.88 19.456-42.88 43.392L460.032 451.84C456 452.608 452.16 453.504 448.32 454.72L448.32 253.568c0-23.872-19.264-43.392-42.88-43.392-23.744 0-42.944 19.52-42.944 43.392l0 358.464C353.088 591.424 352.832 565.312 348.736 545.984c-15.872-73.344-56.064-103.232-80.704-95.36C262.272 452.288 218.432 469.12 227.776 489.28c5.696 12.352 35.456 82.112 38.912 157.824 2.56 54.08 36.096 107.968 70.336 149.248 3.008 6.08 6.656 11.84 11.648 16.576l61.376 60.928L410.048 1024l288.576 0 0-153.984c22.4-34.496 36.48-76.864 38.4-115.328 1.344-37.44 2.624-74.816 4.032-112.32 0.128-0.384 0-0.64 0-1.152C740.864 641.28 740.992 640.896 740.992 640.64z" p-id="1105" fill="#ffffff"></path></svg>