<svg t="1588695814365" class="icon" viewBox="0 0 1043 1024" version="1.1" xmlns="http://www.w3.org/2000/svg" p-id="2933" width="200" height="200"><path d="M0 211.755472A72.626717 72.626717 0 0 1 72.646038 139.109434h724.141887A72.626717 72.626717 0 0 1 869.433962 211.755472v724.141886a72.646038 72.646038 0 0 1-72.646037 72.646038H72.646038A72.646038 72.646038 0 0 1 0 935.897358V211.755472z m82.596226 48.881509v352.50717c0 21.523321 17.581887 38.931321 39.240453 38.931321H317.246792a38.815396 38.815396 0 0 0 39.240453-38.969963V260.675623a39.085887 39.085887 0 0 0-39.240453-38.969963H121.836679a38.815396 38.815396 0 0 0-39.240453 38.969963v-0.038642zM434.716981 245.373585v48.301887c0 10.665057 17.485283 19.320755 39.047245 19.320754h274.026265c10.355925 0 20.286792-2.028679 27.628679-5.64166 7.303245-3.632302 11.418566-8.520453 11.418566-13.640453V245.373585c0-5.12-4.096-10.027472-11.418566-13.659774-7.341887-3.612981-17.253434-5.660981-27.628679-5.660981H473.764226c-10.355925 0-20.286792 2.028679-27.628679 5.660981-7.322566 3.612981-11.437887 8.520453-11.418566 13.640453v0.019321zM82.596226 769.449057V886.822642c0 21.75517 17.408 39.124528 38.834717 39.124528h626.572076a39.008604 39.008604 0 0 0 38.834717-39.124528v-117.373585a38.912 38.912 0 0 0-38.834717-39.124529H121.411623a39.008604 39.008604 0 0 0-38.834717 39.124529zM434.716981 401.852377v48.340529c0 10.626415 17.272755 19.301434 38.564227 19.301434h270.645132c10.24 0 20.054943-2.028679 27.280905-5.660982 7.225962-3.612981 11.302642-8.520453 11.283321-13.640452v-48.340529c0-10.645736-17.253434-19.282113-38.564226-19.301434H473.281208c-10.24 0-20.054943 2.028679-27.280906 5.660982-7.225962 3.612981-11.302642 8.520453-11.283321 13.640452z" fill="#dbdbdb" p-id="2934"></path></svg>