<?xml version="1.0" standalone="no"?><!DOCTYPE svg PUBLIC "-//W3C//DTD SVG 1.1//EN" "http://www.w3.org/Graphics/SVG/1.1/DTD/svg11.dtd"><svg t="1588686982026" class="icon" viewBox="0 0 1024 1024" version="1.1" xmlns="http://www.w3.org/2000/svg" p-id="3991" xmlns:xlink="http://www.w3.org/1999/xlink" width="200" height="200"><defs><style type="text/css"></style></defs><path d="M863.1 129.1l0.1 0.1v767.5l-0.1 0.1H161.3l-0.1-0.1V129.2l0.1-0.1h701.8m0.1-64h-702c-35.2 0-64 28.8-64 64v767.7c0 35.2 28.8 64 64 64h702c35.2 0 64-28.8 64-64V129.1c0-35.2-28.8-64-64-64z" p-id="3992" fill="#dbdbdb"></path><path d="M702.6 289.1H319.3c-17.7 0-32-14.3-32-32s14.3-32 32-32h383.3c17.7 0 32 14.3 32 32s-14.4 32-32 32zM702.6 417H319.3c-17.7 0-32-14.3-32-32s14.3-32 32-32h383.3c17.7 0 32 14.3 32 32s-14.4 32-32 32zM447.3 546.2h-128c-17.7 0-32-14.3-32-32s14.3-32 32-32h128c17.7 0 32 14.3 32 32s-14.3 32-32 32zM640.8 781c-42.7 0-77.5-34.7-77.5-77.5S598 626 640.8 626c42.7 0 77.5 34.7 77.5 77.5S683.5 781 640.8 781z m0-122.9c-25.1 0-45.5 20.4-45.5 45.5s20.4 45.5 45.5 45.5 45.5-20.4 45.5-45.5-20.4-45.5-45.5-45.5zM574 617.2c-5.2 0-10.3-2.5-13.4-7.2-4.9-7.4-2.8-17.3 4.6-22.2 14.8-9.7 31-16.4 48.3-20 8.7-1.8 17.1 3.8 18.9 12.5 1.8 8.7-3.8 17.1-12.5 18.9-13.3 2.7-25.8 7.9-37.1 15.3-2.7 1.9-5.8 2.7-8.8 2.7zM521.3 695.1c-1.1 0-2.1-0.1-3.2-0.3-8.7-1.8-14.3-10.2-12.5-18.9 3.6-17.7 10.6-34.4 20.7-49.4 4.9-7.3 14.9-9.3 22.2-4.4 7.3 4.9 9.3 14.9 4.4 22.2-7.8 11.6-13.1 24.3-15.9 38-1.6 7.5-8.3 12.8-15.7 12.8zM539.3 787.4c-5.2 0-10.2-2.5-13.3-7.1-10-15-16.8-31.5-20.4-49.1-1.8-8.7 3.8-17.1 12.5-18.9 8.7-1.8 17.1 3.8 18.9 12.5 2.7 13.5 8 26.2 15.7 37.7 4.9 7.4 2.9 17.3-4.4 22.2-2.9 1.8-6 2.7-9 2.7zM616.7 839.5c-1.1 0-2.1-0.1-3.2-0.3-17.6-3.6-34.1-10.5-49.1-20.5-7.3-4.9-9.3-14.8-4.4-22.2s14.8-9.3 22.2-4.4c11.5 7.7 24.2 13 37.7 15.7 8.7 1.8 14.3 10.2 12.5 18.9-1.5 7.6-8.2 12.8-15.7 12.8zM665.8 839.5c-7.4 0-14.1-5.2-15.7-12.8-1.8-8.7 3.8-17.1 12.5-18.9 13.4-2.7 26-7.9 37.4-15.5 7.4-4.9 17.3-2.9 22.2 4.5 4.9 7.4 2.9 17.3-4.5 22.2-14.9 9.9-31.2 16.7-48.7 20.2-1.1 0.2-2.2 0.3-3.2 0.3zM743.3 787.2c-3 0-6.1-0.9-8.8-2.7-7.4-4.9-9.4-14.8-4.5-22.2 7.6-11.5 12.8-24.1 15.6-37.5 1.8-8.7 10.2-14.3 18.9-12.5 8.7 1.8 14.3 10.2 12.5 18.9-3.5 17.5-10.4 33.9-20.3 48.8-3.1 4.7-8.2 7.2-13.4 7.2zM761.2 695.1c-7.5 0-14.1-5.2-15.7-12.8-2.7-13.5-8-26.1-15.6-37.6-4.9-7.4-2.9-17.3 4.5-22.2s17.3-2.9 22.2 4.5c10 14.9 16.8 31.4 20.4 49 1.8 8.7-3.8 17.1-12.5 18.9-1.2 0.1-2.3 0.2-3.3 0.2zM708.9 617.5c-3 0-6.1-0.9-8.8-2.7-11.5-7.6-24.1-12.9-37.5-15.6-8.7-1.8-14.2-10.2-12.5-18.9 1.8-8.7 10.2-14.2 18.9-12.5 17.5 3.6 33.9 10.4 48.8 20.3 7.4 4.9 9.4 14.8 4.5 22.2-3.1 4.7-8.2 7.2-13.4 7.2z" p-id="3993" fill="#dbdbdb"></path><path d="M796 743.9h-34c-8.8 0-16-7.2-16-16s7.2-16 16-16h22.6v-16.8H762c-8.8 0-16-7.2-16-16s7.2-16 16-16h34c11.4 0 20.6 9.2 20.6 20.6v39.6c0 11.3-9.2 20.6-20.6 20.6z m0-48.8zM736.7 847.5c-5.5 0-10.7-2.1-14.6-6l-24-24c-6.2-6.2-6.2-16.4 0-22.6 6.2-6.2 16.4-6.2 22.6 0l16 16 11.9-11.9-16-16c-6.2-6.2-6.2-16.4 0-22.6 6.2-6.2 16.4-6.2 22.6 0l24 24c8 8 8 21.1 0 29.1l-28 28c-3.8 3.9-9 6-14.5 6z m19.9-40.5zM661 878.9h-39.6c-11.4 0-20.6-9.2-20.6-20.6v-34c0-8.8 7.2-16 16-16s16 7.2 16 16v22.6h16.8v-22.6c0-8.8 7.2-16 16-16s16 7.2 16 16v34c0 11.3-9.2 20.6-20.6 20.6zM545.7 847.5c-5.5 0-10.7-2.1-14.6-6l-28-28c-8-8-8-21.1 0-29.1l24-24c6.2-6.2 16.4-6.2 22.6 0 6.2 6.2 6.2 16.4 0 22.6l-16 16 11.9 11.9 16-16c6.2-6.2 16.4-6.2 22.6 0 6.2 6.2 6.2 16.4 0 22.6l-24 24c-3.8 3.9-9 6-14.5 6zM520.4 743.9h-34c-11.4 0-20.6-9.2-20.6-20.6v-39.6c0-11.4 9.2-20.6 20.6-20.6h34c8.8 0 16 7.2 16 16s-7.2 16-16 16h-22.6v16.8h22.6c8.8 0 16 7.2 16 16s-7.2 16-16 16zM538.5 651.3c-4.1 0-8.2-1.6-11.3-4.7l-24-24c-3.9-3.9-6-9.1-6-14.6s2.1-10.7 6-14.6l28-28c8-8 21.1-8 29.1 0l24 24c6.2 6.2 6.2 16.4 0 22.6-6.2 6.2-16.4 6.2-22.6 0l-16-16-11.8 12 16 16c6.2 6.2 6.2 16.4 0 22.6-3.2 3.1-7.3 4.7-11.4 4.7zM665.6 598.6c-8.8 0-16-7.2-16-16V560h-16.8v22.6c0 8.8-7.2 16-16 16s-16-7.2-16-16v-34c0-11.4 9.2-20.6 20.6-20.6H661c11.4 0 20.6 9.2 20.6 20.6v34c0 8.9-7.2 16-16 16zM743.9 651.3c-4.1 0-8.2-1.6-11.3-4.7-6.2-6.2-6.2-16.4 0-22.6l16-16-11.9-11.9-16 16c-6.2 6.2-16.4 6.2-22.6 0-6.2-6.2-6.2-16.4 0-22.6l24-24c8-8 21.1-8 29.1 0l28 28c3.9 3.9 6 9.1 6 14.6s-2.1 10.7-6 14.6l-24 24c-3.1 3-7.2 4.6-11.3 4.6z" p-id="3994" fill="#dbdbdb"></path></svg>