<svg t="1588687618241" class="icon" viewBox="0 0 1024 1024" version="1.1" xmlns="http://www.w3.org/2000/svg" p-id="7945" width="200" height="200"><path d="M927.8144 714.3424c12.3168-4.8992 26.272 1.1136 31.1712 13.4304 4.8992 12.3168-1.1136 26.272-13.4304 31.1712L536.2048 921.7584a64.0224 64.0224 0 0 1-47.1568-0.0144L79.7312 758.944c-12.3168-4.8992-18.3296-18.8544-13.4304-31.1712 4.8976-12.3168 18.8544-18.3296 31.1696-13.4304L506.752 877.1296a15.9776 15.9776 0 0 0 11.7472 0.0128z m31.1712-192.9696c4.8352 12.1552-0.9584 25.904-12.9472 30.9728l-0.4832 0.1984-409.3504 162.8144a64.0192 64.0192 0 0 1-46.2976 0.32l-0.8592-0.3344L79.7312 552.544c-12.3168-4.8992-18.3296-18.8544-13.4304-31.1712 4.8336-12.1536 18.488-18.1696 30.6832-13.6176l0.4864 0.1872L506.752 670.7296a15.9872 15.9872 0 0 0 11.232 0.2064l0.5152-0.192 409.3152-162.8016c12.3168-4.8992 26.272 1.1136 31.1712 13.4304zM535.5616 99.6416l386.9152 153.2c28.7568 11.3872 42.8384 43.928 31.4512 72.6848a56 56 0 0 1-31.4512 31.4496l-386.9152 153.2a64 64 0 0 1-47.1232 0L101.5232 356.976c-28.7568-11.3856-42.8384-43.9264-31.4512-72.6832a56 56 0 0 1 31.4512-31.4496l386.9152-153.2a64 64 0 0 1 47.1232 0zM506.1104 144.272L119.1936 297.472a8 8 0 0 0 0 14.8768l386.9168 153.2a16 16 0 0 0 11.7792 0l386.9168-153.2a8 8 0 0 0 0-14.8752L517.8896 144.272a16 16 0 0 0-11.7792 0z" fill="#dbdbdb" p-id="7946"></path></svg>