<svg t="1588696718524" class="icon" viewBox="0 0 1024 1024" version="1.1" xmlns="http://www.w3.org/2000/svg" p-id="6681" width="200" height="200"><path d="M512 99.4c-122.1 0-221.4 99.3-221.4 221.4 0 38.2 9.9 75.8 28.5 108.8 5.1 9 16.6 12.2 25.6 7.1s12.2-16.6 7.1-25.6c-15.5-27.4-23.7-58.6-23.7-90.3C328.1 219.5 410.6 137 512 137s183.9 82.5 183.9 183.9S613.4 504.7 512 504.7c-221.1 0-401 179.9-401 401.1 0 10.4 8.4 18.8 18.8 18.8s18.8-8.4 18.8-18.8c0-200.4 163.1-363.5 363.5-363.5 122.1 0 221.4-99.3 221.4-221.4S634.1 99.4 512 99.4zM706 554.7c-9.1-5-20.5-1.7-25.5 7.3-5 9.1-1.7 20.5 7.3 25.5 115.8 64.1 187.7 186 187.7 318.2 0 10.4 8.4 18.8 18.8 18.8s18.8-8.4 18.8-18.8c-0.1-145.8-79.4-280.3-207.1-351z" fill="#dbdbdb" p-id="6682"></path></svg>